<svg version="1.1" id="Layer_1" xmlns="http://www.w3.org/2000/svg" xmlns:xlink="http://www.w3.org/1999/xlink" x="0px" y="0px"
	 width="100%" viewBox="0 0 50 50" enable-background="new 0 0 50 50" xml:space="preserve">
<path fill="#000000" opacity="1.000000" stroke="none" 
	d="
M51.000000,35.000000 
	C51.000000,40.306664 51.000000,45.613323 51.000000,50.959991 
	C34.443424,50.959991 17.886738,50.959991 1.000000,50.959991 
	C1.000000,43.982635 1.000000,36.960102 1.293779,29.535824 
	C2.719979,29.110573 3.852399,29.087063 5.269750,29.226780 
	C6.088493,30.083223 6.622305,30.776442 7.222786,31.754250 
	C7.275953,32.619061 7.262452,33.199284 7.198092,34.132179 
	C7.557559,35.452473 7.967885,36.420097 8.378210,37.387722 
	C8.911169,36.953579 9.444128,36.519436 10.333838,36.078308 
	C12.480610,36.601749 14.270632,37.132175 16.439686,37.777748 
	C17.872089,37.882454 18.925463,37.872013 20.384262,37.954071 
	C24.193043,38.304916 27.596397,38.563263 31.408096,38.864876 
	C35.514351,38.234829 39.212265,37.561512 43.169235,36.813095 
	C43.671318,36.477337 43.914341,36.216675 44.309837,35.851799 
	C44.654240,35.590321 44.816223,35.406654 45.186970,35.064888 
	C45.642254,34.646965 45.858833,34.360729 46.302803,34.040848 
	C46.530197,34.007202 46.980701,33.915524 47.224247,33.749374 
	C47.678493,33.038063 47.889198,32.492905 48.370033,31.732780 
	C48.379444,29.855274 48.118721,28.192730 47.584209,26.571651 
	C47.153076,26.709669 46.995728,26.806219 46.917847,26.557487 
	C47.096722,25.510798 47.196133,24.809385 47.461349,23.980145 
	C47.419273,23.566313 47.211395,23.280310 46.763081,22.679821 
	C45.765415,22.242525 45.008183,22.119709 44.384071,21.695538 
	C43.597107,20.079454 42.677021,18.764725 41.860821,17.060997 
	C41.510265,15.429578 41.055824,14.187159 40.687912,13.181295 
	C38.323059,14.062573 36.565849,14.717409 34.697567,15.309422 
	C34.586494,15.246599 34.348392,15.154720 34.028732,15.007982 
	C32.718800,14.280731 31.728519,13.700218 30.528969,13.129351 
	C30.319696,13.138997 29.911072,13.231628 29.968651,12.912718 
	C29.673824,12.408948 29.321421,12.224090 28.720972,11.965425 
	C28.318899,11.969343 28.164869,12.047068 27.586040,12.009228 
	C26.890079,11.781369 26.618917,11.669076 26.631588,11.440496 
	C26.590982,10.837906 26.266546,10.351600 25.705666,9.537968 
	C22.311010,9.532735 19.152796,9.854827 15.632837,10.102156 
	C13.922791,10.328607 12.574491,10.629821 10.932277,10.963878 
	C10.113727,11.243602 9.589091,11.490484 8.710957,11.895824 
	C7.842705,12.088343 7.327952,12.122404 6.659808,12.112902 
	C6.506419,12.069339 6.198774,12.153358 5.813637,12.088020 
	C3.952333,12.348454 2.476167,12.674227 1.000000,13.000000 
	C1.000000,9.018509 1.000000,5.037019 1.000000,1.027764 
	C17.570999,1.027764 34.142052,1.027764 51.000000,1.027764 
	C51.000000,11.685852 51.000000,22.374268 50.879738,33.635925 
	C50.598831,34.529530 50.679008,34.793140 51.000000,35.000000 
M21.859783,45.238293 
	C25.159204,45.528164 28.458628,45.818031 31.758049,46.107899 
	C31.784437,45.639309 31.810827,45.170715 31.837215,44.702126 
	C28.227556,44.469612 24.617899,44.237099 20.281004,43.631046 
	C19.908705,43.923130 19.536404,44.215218 19.164103,44.507301 
	C19.818140,44.615677 20.472176,44.724052 21.859783,45.238293 
z"/>
<path fill="#050202" opacity="1.000000" stroke="none" 
	d="
M4.984818,29.063555 
	C3.852399,29.087063 2.719979,29.110573 1.293779,29.067039 
	C1.000000,27.611111 1.000000,26.222221 1.229533,24.719166 
	C1.712088,24.596958 1.965110,24.588917 2.348382,24.733488 
	C3.002919,25.606775 3.527206,26.327448 4.219547,27.381050 
	C4.586674,28.163836 4.785747,28.613695 4.984818,29.063555 
z"/>
<path fill="#B9585C" opacity="1.000000" stroke="none" 
	d="
M1.000000,21.000000 
	C1.000000,19.611002 1.000000,18.222006 1.229426,16.253366 
	C1.770768,15.453529 2.082685,15.233334 2.438023,14.997296 
	C2.481443,14.981455 2.572221,14.964004 2.657867,15.318129 
	C3.071229,16.572281 3.398944,17.472309 3.768438,18.712706 
	C3.829032,19.976564 3.847848,20.900055 3.657489,21.774105 
	C3.448315,21.724665 3.028422,21.632566 2.808200,21.407757 
	C2.058652,21.121965 1.529326,21.060984 1.000000,21.000000 
z"/>
<path fill="#BF5A5E" opacity="1.000000" stroke="none" 
	d="
M2.572221,14.964003 
	C2.572221,14.964004 2.481443,14.981455 2.085879,15.008362 
	C1.460209,15.023514 1.230105,15.011757 1.000000,15.000000 
	C1.000000,14.555555 1.000000,14.111111 1.000000,13.333333 
	C2.476167,12.674227 3.952333,12.348454 5.641829,12.266157 
	C5.613503,13.026125 5.371848,13.542618 4.898620,14.325138 
	C3.968771,14.715445 3.270496,14.839724 2.572221,14.964003 
z"/>
<path fill="#784D4E" opacity="1.000000" stroke="none" 
	d="
M1.000000,21.375000 
	C1.529326,21.060984 2.058652,21.121965 2.772941,21.794365 
	C2.711313,23.130814 2.464723,23.855844 2.218132,24.580875 
	C1.965110,24.588917 1.712088,24.596958 1.229533,24.302498 
	C1.000000,23.250000 1.000000,22.500000 1.000000,21.375000 
z"/>
<path fill="#020101" opacity="1.000000" stroke="none" 
	d="
M51.000000,34.750000 
	C50.679008,34.793140 50.598831,34.529530 50.879738,34.104584 
	C51.000000,34.000000 51.000000,34.500000 51.000000,34.750000 
z"/>
<path fill="#C40A1A" opacity="1.000000" stroke="none" 
	d="
M1.000000,15.250000 
	C1.230105,15.011757 1.460209,15.023514 2.042458,15.024204 
	C2.082685,15.233334 1.770768,15.453529 1.229426,15.836863 
	C1.000000,16.000000 1.000000,15.500000 1.000000,15.250000 
z"/>
<path fill="#E2021B" opacity="1.000000" stroke="none" 
	d="
M41.756939,17.449997 
	C42.677021,18.764725 43.597107,20.079454 44.296211,21.899973 
	C43.832951,22.798569 43.590675,23.191378 43.070889,23.759348 
	C43.167202,25.357294 43.541027,26.780077 44.069168,28.434742 
	C44.487144,29.155313 44.750805,29.644005 44.891563,30.406662 
	C43.837605,31.411386 42.906548,32.142147 41.865005,32.546059 
	C40.273823,32.112701 38.743019,32.205845 37.324924,31.849915 
	C35.489986,31.389362 33.744995,30.570444 31.938408,29.676464 
	C31.915539,29.447105 31.790966,29.002480 31.812878,28.692955 
	C31.310762,27.874205 30.786739,27.364981 30.191267,26.655834 
	C30.119818,26.455910 30.219025,26.043045 30.375290,25.803242 
	C30.434408,25.210926 30.337261,24.858414 30.066696,24.128922 
	C30.235109,22.163677 30.576944,20.575409 31.163586,18.947544 
	C31.732386,18.747564 31.917856,18.488161 32.091198,17.879444 
	C32.230064,17.442638 32.242546,17.256126 32.384190,16.909454 
	C32.513355,16.749294 32.660995,16.365181 32.969849,16.472771 
	C33.635265,16.105146 33.991829,15.629933 34.348392,15.154720 
	C34.348392,15.154720 34.586494,15.246599 34.907738,15.544447 
	C37.404968,16.378195 39.580952,16.914095 41.756939,17.449997 
M39.551979,28.140038 
	C39.842545,28.085463 40.133106,28.030890 40.423672,27.976316 
	C40.135681,27.909735 39.847691,27.843153 39.551979,28.140038 
M40.492279,20.536131 
	C40.492279,20.536131 40.466938,20.477606 40.492279,20.536131 
z"/>
<path fill="#E1011A" opacity="1.000000" stroke="none" 
	d="
M7.248950,33.779507 
	C7.262452,33.199284 7.275953,32.619061 7.617009,31.580688 
	C8.081357,29.733170 8.218151,28.343798 8.448492,26.635363 
	C8.471989,25.656708 8.401939,24.997116 8.884718,24.473587 
	C9.953611,25.159044 10.469674,25.708441 10.915274,26.331429 
	C10.844810,26.405024 11.176217,26.605625 11.299906,26.755093 
	C11.423594,26.904562 11.800428,26.997042 12.048290,27.294001 
	C13.736258,27.999842 15.176363,28.408724 16.844986,28.946148 
	C17.698896,29.378654 18.324291,29.682621 18.964752,30.291311 
	C18.980850,31.002577 18.981882,31.409119 18.654083,31.879580 
	C17.883402,32.003376 17.441553,32.063251 16.747868,32.050323 
	C16.322021,31.993656 16.148010,32.009792 15.626789,32.154362 
	C13.570144,32.488445 11.860707,32.694092 9.924654,32.866566 
	C9.365574,32.745113 9.102324,32.842575 8.599997,33.130226 
	C7.944118,33.349613 7.596534,33.564560 7.248950,33.779507 
z"/>
<path fill="#732021" opacity="1.000000" stroke="none" 
	d="
M30.999752,38.821606 
	C27.596397,38.563263 24.193043,38.304916 20.387787,37.759933 
	C19.985886,37.473297 19.986486,37.084660 20.374334,36.985447 
	C22.869444,36.845558 24.976707,36.804882 27.231071,36.993328 
	C28.301554,37.461670 29.224930,37.700890 30.359516,37.922073 
	C30.570726,37.904041 30.994652,37.899029 30.996075,38.129673 
	C30.997496,38.360317 30.999752,38.821606 30.999752,38.821606 
z"/>
<path fill="#742121" opacity="1.000000" stroke="none" 
	d="
M31.408096,38.864876 
	C30.999752,38.821606 30.997496,38.360317 31.288290,38.003235 
	C32.731953,37.145588 33.884819,36.645020 35.494110,36.130383 
	C37.485058,36.072079 39.019588,36.027851 40.529579,35.955719 
	C40.505043,35.927818 40.506973,35.853531 40.835789,35.917950 
	C41.746460,36.284309 42.328320,36.586250 42.910175,36.888191 
	C39.212265,37.561512 35.514351,38.234829 31.408096,38.864876 
z"/>
<path fill="#E44A51" opacity="1.000000" stroke="none" 
	d="
M41.860821,17.060997 
	C39.580952,16.914095 37.404968,16.378195 35.018810,15.607269 
	C36.565849,14.717409 38.323059,14.062573 40.687912,13.181295 
	C41.055824,14.187159 41.510265,15.429578 41.860821,17.060997 
z"/>
<path fill="#CCC6C3" opacity="1.000000" stroke="none" 
	d="
M21.008242,44.004585 
	C24.617899,44.237099 28.227556,44.469612 31.837215,44.702126 
	C31.810827,45.170715 31.784437,45.639309 31.758049,46.107899 
	C28.458628,45.818031 25.159204,45.528164 21.498255,44.823448 
	C21.136726,44.408607 21.008242,44.004585 21.008242,44.004585 
z"/>
<path fill="#050202" opacity="1.000000" stroke="none" 
	d="
M9.064455,11.737366 
	C9.589091,11.490484 10.113727,11.243602 11.180840,11.139269 
	C11.866367,11.871393 12.009418,12.460969 12.053486,13.359965 
	C11.902620,14.309696 11.850738,14.950006 11.538889,15.724658 
	C10.912663,15.976623 10.546405,16.094246 10.090689,16.019730 
	C9.818816,15.602840 9.585185,15.465268 9.100006,14.982714 
	C8.954601,13.612824 9.009528,12.675096 9.064455,11.737366 
z"/>
<path fill="#9A2125" opacity="1.000000" stroke="none" 
	d="
M16.060654,37.662598 
	C14.270632,37.132175 12.480610,36.601749 10.196384,35.781403 
	C9.715894,35.059273 9.729608,34.627060 10.134369,34.195084 
	C12.300157,34.458801 14.074897,34.722279 16.006958,35.251236 
	C16.824999,35.994171 17.485722,36.471622 17.865547,36.972416 
	C17.076653,37.218040 16.568653,37.440319 16.060654,37.662598 
z"/>
<path fill="#B6C1C6" opacity="1.000000" stroke="none" 
	d="
M43.348404,23.584187 
	C43.590675,23.191378 43.832951,22.798569 44.163090,22.201328 
	C45.008183,22.119709 45.765415,22.242525 46.763554,22.977280 
	C47.101494,23.762140 47.198521,23.935059 47.295540,24.107975 
	C47.196133,24.809385 47.096722,25.510798 46.556278,26.667271 
	C45.422680,27.416788 44.730114,27.711245 43.759384,27.505550 
	C43.436943,25.864998 43.392673,24.724592 43.348404,23.584187 
z"/>
<path fill="#D56973" opacity="1.000000" stroke="none" 
	d="
M15.994583,10.176918 
	C19.152796,9.854827 22.311010,9.532735 25.344437,9.571157 
	C24.495590,9.989526 23.771530,10.047381 22.725451,10.070804 
	C21.749762,10.395894 21.096094,10.755417 20.316820,11.319183 
	C19.942642,11.758114 19.648064,11.860741 19.039074,11.638491 
	C17.916801,11.435441 17.062935,11.425208 16.152359,11.105996 
	C16.061964,10.590317 16.028273,10.383617 15.994583,10.176918 
z"/>
<path fill="#020101" opacity="1.000000" stroke="none" 
	d="
M9.743321,34.194851 
	C9.729608,34.627060 9.715894,35.059273 9.839634,35.788387 
	C9.444128,36.519436 8.911169,36.953579 8.378210,37.387722 
	C7.967885,36.420097 7.557559,35.452473 7.198092,34.132179 
	C7.596534,33.564560 7.944118,33.349613 8.676112,33.442841 
	C9.210143,33.899837 9.359763,34.048664 9.568314,34.236374 
	C9.627243,34.275261 9.743321,34.194851 9.743321,34.194851 
z"/>
<path fill="#CE585C" opacity="1.000000" stroke="none" 
	d="
M8.354946,26.954428 
	C8.218151,28.343798 8.081357,29.733170 7.550341,31.296101 
	C6.622305,30.776442 6.088493,30.083223 5.269750,29.226780 
	C4.785747,28.613695 4.586674,28.163836 4.605522,27.264912 
	C5.285919,26.569307 5.748395,26.322765 6.502908,26.043701 
	C7.182746,25.942101 7.570549,25.873020 8.059600,26.090836 
	C8.225548,26.569967 8.290247,26.762197 8.354946,26.954428 
z"/>
<path fill="#DE021A" opacity="1.000000" stroke="none" 
	d="
M44.037552,28.005699 
	C44.730114,27.711245 45.422680,27.416788 46.476814,27.012550 
	C46.995728,26.806219 47.153076,26.709669 47.606445,26.935308 
	C47.932457,27.984413 47.962444,28.711329 47.606140,29.432457 
	C46.484718,29.662014 45.749592,29.897354 45.014465,30.132696 
	C44.750805,29.644005 44.487144,29.155313 44.091602,28.380001 
	C43.959724,28.093376 44.037552,28.005701 44.037552,28.005699 
z"/>
<path fill="#DD7777" opacity="1.000000" stroke="none" 
	d="
M15.632837,10.102156 
	C16.028273,10.383617 16.061964,10.590317 16.126871,11.184528 
	C16.158089,11.572041 16.011410,11.652857 15.701811,11.683174 
	C14.735248,12.124468 14.078284,12.535443 13.105639,12.991089 
	C12.577458,13.040689 12.364963,13.045617 12.152468,13.050545 
	C12.009418,12.460969 11.866367,11.871393 11.474754,11.106426 
	C12.574491,10.629821 13.922791,10.328607 15.632837,10.102156 
z"/>
<path fill="#9DA0A2" opacity="1.000000" stroke="none" 
	d="
M26.347754,11.556782 
	C26.618917,11.669076 26.890079,11.781369 27.496727,12.236094 
	C27.868828,13.341905 27.905439,14.105283 27.655872,14.926099 
	C26.981295,14.996935 26.592897,15.010333 25.956604,14.992256 
	C25.708708,14.960783 25.213739,14.892877 25.129999,14.567938 
	C24.621305,13.526649 24.196354,12.810298 23.991917,11.789888 
	C24.924206,11.509480 25.635979,11.533132 26.347754,11.556782 
z"/>
<path fill="#AE1725" opacity="1.000000" stroke="none" 
	d="
M26.631588,11.440496 
	C25.635979,11.533132 24.924206,11.509480 24.031086,11.765896 
	C23.849739,12.045961 23.919939,12.107643 24.036556,11.800943 
	C23.775978,11.284369 23.398783,11.074495 23.025358,10.674683 
	C23.029131,10.484745 23.047470,10.105237 23.047470,10.105236 
	C23.771530,10.047381 24.495590,9.989526 25.580879,9.898481 
	C26.266546,10.351600 26.590982,10.837906 26.631588,11.440496 
z"/>
<path fill="#AAB4BA" opacity="1.000000" stroke="none" 
	d="
M27.942049,14.868661 
	C27.905439,14.105283 27.868828,13.341905 27.921528,12.351660 
	C28.164869,12.047068 28.318899,11.969343 28.734890,12.172310 
	C29.301594,12.712543 29.606333,12.972086 29.911072,13.231628 
	C29.911072,13.231628 30.319696,13.138997 30.425425,13.450867 
	C30.621469,14.194251 30.711784,14.625766 30.443916,15.072746 
	C29.371170,15.015027 28.656610,14.941844 27.942049,14.868661 
z"/>
<path fill="#A2232E" opacity="1.000000" stroke="none" 
	d="
M47.992432,29.438242 
	C47.962444,28.711329 47.932457,27.984413 47.880234,26.893843 
	C48.118721,28.192730 48.379444,29.855274 48.342793,31.499737 
	C48.045418,31.481655 47.975857,31.018066 48.035690,30.623524 
	C48.061157,29.965403 48.026791,29.701822 47.992432,29.438242 
z"/>
<path fill="#1B1718" opacity="1.000000" stroke="none" 
	d="
M30.802101,15.057281 
	C30.711784,14.625766 30.621469,14.194251 30.634697,13.441221 
	C31.728519,13.700218 32.718800,14.280731 34.028732,15.007982 
	C33.991829,15.629933 33.635265,16.105146 32.650490,16.264750 
	C31.615549,15.651855 31.208826,15.354568 30.802101,15.057281 
z"/>
<path fill="#D61325" opacity="1.000000" stroke="none" 
	d="
M5.130193,14.059113 
	C5.371848,13.542618 5.613503,13.026125 6.026965,12.331495 
	C6.198774,12.153358 6.506419,12.069339 6.779029,12.356867 
	C6.985337,13.136066 6.919034,13.627737 6.648657,14.102860 
	C6.006452,14.077246 5.568323,14.068179 5.130193,14.059113 
z"/>
<path fill="#842525" opacity="1.000000" stroke="none" 
	d="
M16.439686,37.777748 
	C16.568653,37.440319 17.076653,37.218040 18.173611,36.956825 
	C19.170544,36.973484 19.578514,37.029072 19.986486,37.084660 
	C19.986486,37.084660 19.985886,37.473297 19.982361,37.667435 
	C18.925463,37.872013 17.872089,37.882454 16.439686,37.777748 
z"/>
<path fill="#62191B" opacity="1.000000" stroke="none" 
	d="
M43.169235,36.813095 
	C42.328320,36.586250 41.746460,36.284309 40.895805,35.773026 
	C40.627003,35.563686 40.934540,35.513798 41.200905,35.352448 
	C41.651424,35.095211 41.835575,34.999325 42.432606,34.901302 
	C43.399162,34.924500 43.952835,34.949841 44.385117,35.208252 
	C44.228275,35.612881 44.192822,35.784447 44.157364,35.956017 
	C43.914341,36.216675 43.671318,36.477337 43.169235,36.813095 
z"/>
<path fill="#BF5A5E" opacity="1.000000" stroke="none" 
	d="
M6.852732,14.119408 
	C6.919034,13.627737 6.985337,13.136066 6.932419,12.400431 
	C7.327952,12.122404 7.842705,12.088343 8.710957,11.895824 
	C9.009528,12.675096 8.954601,13.612824 8.670131,14.804364 
	C7.911302,14.745253 7.382017,14.432330 6.852732,14.119408 
z"/>
<path fill="#441415" opacity="1.000000" stroke="none" 
	d="
M47.975857,31.018066 
	C47.975857,31.018066 48.045418,31.481655 48.072662,31.714699 
	C47.889198,32.492905 47.678493,33.038063 47.230446,33.418369 
	C46.992718,32.809181 46.992340,32.364849 47.110954,31.726070 
	C47.429760,31.289549 47.678398,31.118362 47.975857,31.018066 
z"/>
<path fill="#6B615E" opacity="1.000000" stroke="none" 
	d="
M20.644623,43.817818 
	C21.008242,44.004585 21.136726,44.408607 21.131470,44.620518 
	C20.472176,44.724052 19.818140,44.615677 19.164104,44.507301 
	C19.536404,44.215218 19.908705,43.923130 20.644623,43.817818 
z"/>
<path fill="#9DA0A2" opacity="1.000000" stroke="none" 
	d="
M29.968651,12.912718 
	C29.606333,12.972086 29.301594,12.712543 28.982937,12.246116 
	C29.321421,12.224090 29.673824,12.408948 29.968651,12.912718 
z"/>
<path fill="#550E12" opacity="1.000000" stroke="none" 
	d="
M46.991966,31.920515 
	C46.992340,32.364849 46.992718,32.809181 46.986900,33.584518 
	C46.980701,33.915524 46.530197,34.007202 46.246552,33.991577 
	C45.962910,33.975948 45.848194,33.879990 45.908962,33.596977 
	C46.310474,32.849483 46.651218,32.384998 46.991966,31.920515 
z"/>
<path fill="#4C383C" opacity="1.000000" stroke="none" 
	d="
M47.461349,23.980145 
	C47.198521,23.935059 47.101494,23.762140 47.003990,23.291763 
	C47.211395,23.280310 47.419273,23.566313 47.461349,23.980145 
z"/>
<path fill="#550E12" opacity="1.000000" stroke="none" 
	d="
M46.019157,34.025223 
	C45.858833,34.360729 45.642254,34.646965 45.130180,35.018288 
	C44.834686,35.103371 44.693810,35.063309 44.832642,34.814339 
	C45.263718,34.336910 45.555954,34.108452 45.848194,33.879990 
	C45.848194,33.879990 45.962910,33.975948 46.019157,34.025223 
z"/>
<path fill="#020101" opacity="1.000000" stroke="none" 
	d="
M44.309837,35.851799 
	C44.192822,35.784447 44.228275,35.612881 44.429256,35.231663 
	C44.594784,35.022007 44.693810,35.063309 44.693810,35.063309 
	C44.693810,35.063309 44.834686,35.103371 44.891476,35.149975 
	C44.816223,35.406654 44.654240,35.590321 44.309837,35.851799 
z"/>
<path fill="#6E191E" opacity="1.000000" stroke="none" 
	d="
M6.210872,26.076223 
	C5.748395,26.322765 5.285919,26.569307 4.437468,26.931986 
	C3.527206,26.327448 3.002919,25.606775 2.348382,24.733488 
	C2.464723,23.855844 2.711313,23.130814 2.993163,22.019175 
	C3.028422,21.632566 3.448315,21.724665 3.823139,22.081099 
	C4.580892,23.011358 4.963820,23.585186 5.427756,24.402008 
	C5.742800,25.122078 5.976836,25.599150 6.210872,26.076223 
z"/>
<path fill="#C40A1A" opacity="1.000000" stroke="none" 
	d="
M6.648657,14.102860 
	C7.382017,14.432330 7.911302,14.745253 8.870462,15.236525 
	C9.585185,15.465268 9.818816,15.602840 9.845131,16.280739 
	C8.245597,17.199139 6.802165,17.664392 4.949679,18.183361 
	C4.269304,18.282164 3.997981,18.327250 3.726659,18.372335 
	C3.398944,17.472309 3.071229,16.572281 2.657867,15.318129 
	C3.270496,14.839724 3.968771,14.715445 4.898620,14.325139 
	C5.568323,14.068179 6.006452,14.077246 6.648657,14.102860 
z"/>
<path fill="#911F21" opacity="1.000000" stroke="none" 
	d="
M3.768438,18.712706 
	C3.997981,18.327250 4.269304,18.282164 5.155119,18.251499 
	C6.109061,18.553255 6.448511,18.840590 6.801350,19.450901 
	C6.861756,19.984190 6.908772,20.194502 7.071471,20.684017 
	C7.353907,21.329670 7.520660,21.696121 7.370922,22.153284 
	C6.485203,22.882336 5.915975,23.520674 5.346747,24.159012 
	C4.963820,23.585186 4.580892,23.011358 4.032314,22.130539 
	C3.847848,20.900055 3.829032,19.976564 3.768438,18.712706 
z"/>
<path fill="#F6B4B4" opacity="1.000000" stroke="none" 
	d="
M30.918777,18.987141 
	C30.576944,20.575409 30.235109,22.163677 29.967546,24.373196 
	C30.100885,25.343979 30.159956,25.693512 30.219025,26.043045 
	C30.219025,26.043045 30.119818,26.455910 29.997829,26.964237 
	C28.590424,27.993032 27.305006,28.513502 25.731216,28.992237 
	C25.251150,28.918562 25.059454,28.886621 24.691498,28.555367 
	C23.784248,28.019541 23.053255,27.783035 22.340393,27.490021 
	C22.358521,27.433516 22.360765,27.314362 22.659920,27.107815 
	C21.962553,25.748693 20.966030,24.596119 20.047806,23.251654 
	C19.927485,22.717541 19.728863,22.375317 19.309296,21.753595 
	C19.013899,21.005260 18.939447,20.536425 19.033970,19.799873 
	C19.790157,19.321423 20.377369,19.110685 21.363131,18.936626 
	C22.825712,18.955921 23.889746,18.938538 25.277294,18.942448 
	C26.395121,18.713203 27.189432,18.462666 28.314182,18.165157 
	C29.087769,18.148727 29.530920,18.179266 30.094769,18.381592 
	C30.399094,18.780346 30.633532,18.924934 30.918777,18.987141 
z"/>
<path fill="#DE021A" opacity="1.000000" stroke="none" 
	d="
M31.961277,29.905823 
	C33.744995,30.570444 35.489986,31.389362 37.324924,31.849915 
	C38.743019,32.205845 40.273823,32.112701 41.841095,32.760468 
	C41.927666,33.301731 41.873402,33.729553 41.586910,33.773914 
	C41.109917,33.851089 40.919418,33.883907 40.285423,33.912342 
	C36.520245,33.964035 33.198555,34.020115 29.510971,34.047596 
	C27.436138,33.339661 25.727198,32.660328 24.012775,31.839632 
	C24.007292,31.698273 23.980330,31.416517 24.330952,31.299730 
	C25.157671,31.063181 25.633768,30.943420 26.485130,30.883173 
	C28.222530,30.655136 29.584669,30.367584 31.200474,30.036760 
	C31.623182,29.964266 31.792229,29.935045 31.961277,29.905823 
z"/>
<path fill="#070101" opacity="1.000000" stroke="none" 
	d="
M41.873402,33.729553 
	C41.873402,33.729553 41.927666,33.301731 41.951576,33.087318 
	C42.906548,32.142147 43.837605,31.411386 44.891563,30.406662 
	C45.749592,29.897354 46.484718,29.662014 47.606136,29.432457 
	C48.026791,29.701822 48.061157,29.965403 48.035690,30.623524 
	C47.678398,31.118362 47.429760,31.289549 47.110950,31.726070 
	C46.651218,32.384998 46.310474,32.849483 45.908962,33.596977 
	C45.555954,34.108452 45.263718,34.336910 44.832642,34.814339 
	C44.693810,35.063309 44.594784,35.022007 44.550644,34.998596 
	C43.952835,34.949841 43.399162,34.924500 42.402004,34.607475 
	C41.930149,34.120377 41.901775,33.924965 41.873402,33.729553 
z"/>
<path fill="#C8DEE9" opacity="1.000000" stroke="none" 
	d="
M30.443916,15.072746 
	C31.208826,15.354568 31.615549,15.651855 32.341637,16.157162 
	C32.660995,16.365181 32.513355,16.749294 31.944389,16.886971 
	C29.928848,17.069376 28.482271,17.114105 26.846132,17.051266 
	C26.656569,16.943697 26.225904,16.888605 26.203379,16.578136 
	C26.188734,15.853024 26.196617,15.438376 26.204498,15.023730 
	C26.592897,15.010333 26.981295,14.996935 27.655872,14.926099 
	C28.656610,14.941844 29.371170,15.015027 30.443916,15.072746 
z"/>
<path fill="#DF6257" opacity="1.000000" stroke="none" 
	d="
M26.019588,29.033974 
	C27.305006,28.513502 28.590424,27.993032 30.069279,27.164162 
	C30.786739,27.364981 31.310762,27.874205 31.396095,28.693823 
	C29.838215,29.024784 28.719027,29.045351 27.332346,29.057171 
	C26.702894,29.021931 26.340933,28.995436 25.982630,28.989279 
	C25.986288,29.009615 26.019590,29.033974 26.019588,29.033974 
z"/>
<path fill="#780A15" opacity="1.000000" stroke="none" 
	d="
M43.759384,27.505552 
	C44.037552,28.005701 43.959724,28.093376 43.937290,28.148117 
	C43.541027,26.780077 43.167202,25.357294 43.070885,23.759348 
	C43.392673,24.724592 43.436943,25.864998 43.759384,27.505552 
z"/>
<path fill="#923D45" opacity="1.000000" stroke="none" 
	d="
M27.035696,17.158836 
	C28.482271,17.114105 29.928848,17.069376 31.815224,17.047131 
	C32.242546,17.256126 32.230064,17.442638 31.758215,17.841743 
	C30.857252,18.106157 30.415661,18.157982 29.974070,18.209806 
	C29.530920,18.179266 29.087769,18.148727 28.076221,18.057243 
	C27.342224,17.942278 27.176624,17.888258 27.013988,17.665270 
	C27.016956,17.496302 27.035696,17.158836 27.035696,17.158836 
z"/>
<path fill="#B55A5A" opacity="1.000000" stroke="none" 
	d="
M27.599836,29.065918 
	C28.719027,29.045351 29.838215,29.024784 31.374186,29.003349 
	C31.790966,29.002480 31.915539,29.447105 31.938408,29.676464 
	C31.792229,29.935045 31.623182,29.964266 30.851366,29.993641 
	C29.365675,29.684505 28.482756,29.375212 27.599836,29.065918 
z"/>
<path fill="#DE021A" opacity="1.000000" stroke="none" 
	d="
M39.555840,27.958305 
	C39.847691,27.843153 40.135681,27.909735 40.423672,27.976315 
	C40.133106,28.030890 39.842545,28.085463 39.555840,27.958305 
z"/>
<path fill="#F29696" opacity="1.000000" stroke="none" 
	d="
M30.094769,18.381592 
	C30.415661,18.157982 30.857252,18.106157 31.631826,18.092035 
	C31.917856,18.488161 31.732386,18.747564 31.163586,18.947544 
	C30.633532,18.924934 30.399094,18.780346 30.094769,18.381592 
z"/>
<path fill="#E53930" opacity="1.000000" stroke="none" 
	d="
M30.375290,25.803242 
	C30.159956,25.693512 30.100885,25.343979 30.140965,24.750172 
	C30.337261,24.858414 30.434408,25.210926 30.375290,25.803242 
z"/>
<path fill="#DF1D2D" opacity="1.000000" stroke="none" 
	d="
M40.479607,20.506868 
	C40.466938,20.477606 40.492279,20.536131 40.479607,20.506868 
z"/>
<path fill="#020000" opacity="1.000000" stroke="none" 
	d="
M24.018257,31.980991 
	C25.727198,32.660328 27.436138,33.339661 29.558094,34.249710 
	C29.971111,34.480423 30.096619,34.876369 30.065643,35.238590 
	C30.013643,35.842258 29.992620,36.083706 29.600296,36.304039 
	C28.513987,36.443356 27.798979,36.603783 27.083969,36.764210 
	C24.976707,36.804882 22.869444,36.845558 20.374334,36.985447 
	C19.578514,37.029072 19.170544,36.973484 18.454508,36.933487 
	C17.485722,36.471622 16.824999,35.994171 16.052160,34.921051 
	C15.982464,33.884029 16.024885,33.442680 16.248409,32.883934 
	C16.658541,32.586609 16.848606,32.372135 16.999702,32.123127 
	C17.441553,32.063251 17.883402,32.003376 19.066589,31.975182 
	C21.211370,31.998241 22.614813,31.989616 24.018257,31.980991 
z"/>
<path fill="#B78E8E" opacity="1.000000" stroke="none" 
	d="
M19.530241,22.033092 
	C19.728863,22.375317 19.927485,22.717541 20.138496,23.739563 
	C20.138081,24.749966 20.125275,25.080574 19.619816,25.394104 
	C17.879852,24.983549 16.632542,24.590071 15.178257,24.162518 
	C14.545431,24.066622 14.119580,24.004801 13.388456,24.058838 
	C12.655599,25.115477 12.228014,26.056259 11.800428,26.997042 
	C11.800428,26.997042 11.423594,26.904562 11.284749,26.684546 
	C11.145905,26.464529 10.985737,26.257835 10.985737,26.257835 
	C10.469674,25.708441 9.953611,25.159044 8.828106,24.411232 
	C8.218663,24.212816 8.044744,24.189693 8.000024,23.896666 
	C7.929306,23.407743 7.903308,23.211847 7.946799,23.010767 
	C8.065368,22.730291 7.993268,22.513403 7.795713,22.272640 
	C7.791437,22.190361 7.687413,22.062572 7.687413,22.062572 
	C7.520660,21.696121 7.353907,21.329670 7.401927,20.747818 
	C8.256548,20.694593 8.896395,20.856770 9.742062,21.220169 
	C12.421240,21.336916 14.894597,21.252443 17.630329,21.290556 
	C18.438549,21.619791 18.984396,21.826441 19.530241,22.033092 
z"/>
<path fill="#F9FCFC" opacity="1.000000" stroke="none" 
	d="
M15.385232,24.196594 
	C16.632542,24.590071 17.879852,24.983549 19.630432,25.421806 
	C20.133699,25.466585 20.090528,25.508442 20.019531,25.653244 
	C19.948534,25.798046 20.170176,26.034210 20.170176,26.034210 
	C20.170176,26.034210 20.484121,25.954023 20.626953,26.089592 
	C20.769783,26.225159 20.945589,26.577591 20.819893,26.903496 
	C20.746655,27.456284 20.799114,27.683167 20.858747,28.175583 
	C20.582134,28.883055 20.298349,29.324997 19.742479,29.793413 
	C19.296824,29.875456 19.123255,29.931021 18.949686,29.986588 
	C18.324291,29.682621 17.698896,29.378654 16.800220,28.580395 
	C16.256596,27.678974 15.986253,27.271849 15.720091,26.414240 
	C15.611259,25.374702 15.498245,24.785648 15.385232,24.196594 
z"/>
<path fill="#99A9B0" opacity="1.000000" stroke="none" 
	d="
M15.715908,26.864723 
	C15.986253,27.271849 16.256596,27.678974 16.571705,28.451853 
	C15.176363,28.408724 13.736258,27.999842 12.048290,27.294001 
	C12.228014,26.056259 12.655599,25.115477 13.528249,24.366846 
	C14.554178,25.327574 15.135043,26.096149 15.715908,26.864723 
z"/>
<path fill="#AF1A22" opacity="1.000000" stroke="none" 
	d="
M16.067307,33.001328 
	C16.024885,33.442680 15.982464,33.884029 15.894840,34.655571 
	C14.074897,34.722279 12.300157,34.458801 10.134369,34.195084 
	C9.743321,34.194851 9.627243,34.275261 9.749166,33.921398 
	C9.964483,33.344940 10.057877,33.122341 10.151271,32.899738 
	C11.860707,32.694092 13.570144,32.488445 15.616743,32.401260 
	C15.953907,32.519722 16.067307,33.001328 16.067307,33.001328 
z"/>
<path fill="#D0061C" opacity="1.000000" stroke="none" 
	d="
M18.964752,30.291311 
	C19.123255,29.931021 19.296824,29.875456 19.673248,29.848951 
	C19.876101,29.878014 19.974854,30.025517 20.271038,30.218554 
	C21.704926,30.746567 22.842627,31.081543 23.980330,31.416519 
	C23.980330,31.416517 24.007292,31.698273 24.012775,31.839632 
	C22.614813,31.989616 21.211370,31.998241 19.395420,31.911263 
	C18.981882,31.409119 18.980850,31.002577 18.964752,30.291311 
z"/>
<path fill="#921D29" opacity="1.000000" stroke="none" 
	d="
M8.044744,24.189693 
	C8.044744,24.189693 8.218663,24.212816 8.275276,24.275171 
	C8.401939,24.997116 8.471989,25.656708 8.448492,26.635363 
	C8.290247,26.762197 8.225548,26.569967 8.073356,25.687134 
	C8.005490,24.727589 8.025117,24.458641 8.044744,24.189693 
z"/>
<path fill="#5F1215" opacity="1.000000" stroke="none" 
	d="
M9.924654,32.866566 
	C10.057877,33.122341 9.964483,33.344940 9.690236,33.882511 
	C9.359763,34.048664 9.210143,33.899837 8.984407,33.438396 
	C9.102324,32.842575 9.365574,32.745113 9.924654,32.866566 
z"/>
<path fill="#9B7677" opacity="1.000000" stroke="none" 
	d="
M10.915274,26.331429 
	C10.985737,26.257835 11.145905,26.464529 11.161060,26.535076 
	C11.176217,26.605625 10.844810,26.405024 10.915274,26.331429 
z"/>
<path fill="#190204" opacity="1.000000" stroke="none" 
	d="
M16.248409,32.883934 
	C16.067307,33.001328 15.953907,32.519722 15.963953,32.272827 
	C16.148010,32.009792 16.322021,31.993656 16.747868,32.050323 
	C16.848606,32.372135 16.658541,32.586609 16.248409,32.883934 
z"/>
<path fill="#40090D" opacity="1.000000" stroke="none" 
	d="
M29.971596,36.325153 
	C29.992620,36.083706 30.013643,35.842258 30.475269,35.275543 
	C32.285069,35.021339 33.654263,35.092403 35.024887,35.408745 
	C35.026321,35.654022 35.037685,36.144455 35.037685,36.144455 
	C33.884819,36.645020 32.731953,37.145588 31.286869,37.772591 
	C30.994652,37.899029 30.570726,37.904041 30.310120,37.654240 
	C30.023542,37.044678 29.997570,36.684914 29.971596,36.325153 
z"/>
<path fill="#742121" opacity="1.000000" stroke="none" 
	d="
M29.600296,36.304039 
	C29.997570,36.684914 30.023542,37.044678 30.098911,37.672272 
	C29.224930,37.700890 28.301554,37.461670 27.231071,36.993328 
	C27.798979,36.603783 28.513987,36.443356 29.600296,36.304039 
z"/>
<path fill="#BF1221" opacity="1.000000" stroke="none" 
	d="
M35.023457,35.163467 
	C33.654263,35.092403 32.285069,35.021339 30.506247,34.913322 
	C30.096619,34.876369 29.971111,34.480423 29.923988,34.278309 
	C33.198555,34.020115 36.520245,33.964035 40.242027,34.323837 
	C40.739590,34.997742 40.837063,35.255768 40.934540,35.513798 
	C40.934540,35.513798 40.627003,35.563686 40.566986,35.708611 
	C40.506973,35.853531 40.505043,35.927818 40.262859,35.619904 
	C38.354935,35.262486 36.689198,35.212975 35.023457,35.163467 
z"/>
<path fill="#2F0709" opacity="1.000000" stroke="none" 
	d="
M35.024887,35.408745 
	C36.689198,35.212975 38.354935,35.262486 40.287395,35.647804 
	C39.019588,36.027851 37.485058,36.072079 35.494110,36.130383 
	C35.037685,36.144455 35.026321,35.654022 35.024887,35.408745 
z"/>
<path fill="#F7B4B4" opacity="1.000000" stroke="none" 
	d="
M17.367954,21.167971 
	C14.894597,21.252443 12.421240,21.336916 9.539957,20.903049 
	C8.350675,19.965782 7.569317,19.546852 6.787960,19.127922 
	C6.448511,18.840590 6.109061,18.553255 5.564172,18.197784 
	C6.802165,17.664392 8.245597,17.199139 9.934587,16.472878 
	C10.546405,16.094246 10.912663,15.976623 11.534864,16.095644 
	C12.241918,16.879547 12.693027,17.426805 13.433512,17.981972 
	C14.108644,18.026438 14.494402,18.062998 15.014300,18.394842 
	C15.888278,19.516075 16.628117,20.342022 17.367954,21.167971 
z"/>
<path fill="#EC9796" opacity="1.000000" stroke="none" 
	d="
M13.144137,17.974064 
	C12.693027,17.426805 12.241918,16.879547 11.794830,15.961303 
	C11.850738,14.950006 11.902620,14.309696 12.053486,13.359965 
	C12.364963,13.045617 12.577458,13.040689 13.159092,13.369986 
	C13.431718,14.464461 13.335205,15.224710 13.095022,16.187651 
	C12.951352,16.390343 13.025042,16.883892 13.011971,17.161116 
	C13.047312,17.616915 13.095724,17.795488 13.144137,17.974064 
z"/>
<path fill="#030302" opacity="1.000000" stroke="none" 
	d="
M13.238692,15.984959 
	C13.335205,15.224710 13.431718,14.464461 13.474776,13.325315 
	C14.078284,12.535443 14.735248,12.124468 15.995783,11.900709 
	C17.502062,12.002387 18.404770,11.916847 19.307478,11.831308 
	C19.648064,11.860741 19.942642,11.758114 20.568928,11.380713 
	C21.295742,11.210235 21.644846,11.182470 22.173264,11.436355 
	C22.875032,11.847883 23.397486,11.977763 23.919939,12.107643 
	C23.919939,12.107643 23.849739,12.045961 23.810570,12.069954 
	C24.196354,12.810298 24.621305,13.526649 24.962734,14.870279 
	C23.851265,15.961856 22.823317,16.426151 21.369999,16.857407 
	C18.634701,16.816954 16.324774,16.809540 13.946278,16.613567 
	C13.746763,16.159342 13.533757,16.012657 13.238692,15.984959 
z"/>
<path fill="#CCBFBD" opacity="1.000000" stroke="none" 
	d="
M19.039074,11.638491 
	C18.404770,11.916847 17.502062,12.002387 16.305382,11.870392 
	C16.011410,11.652857 16.158089,11.572041 16.183578,11.493508 
	C17.062935,11.425208 17.916801,11.435441 19.039074,11.638491 
z"/>
<path fill="#B3373C" opacity="1.000000" stroke="none" 
	d="
M21.993950,11.154706 
	C21.644846,11.182470 21.295742,11.210235 20.694530,11.176470 
	C21.096094,10.755417 21.749762,10.395894 22.725451,10.070805 
	C23.047470,10.105237 23.029131,10.484745 22.773434,10.764641 
	C22.343140,11.081259 22.168545,11.117983 21.993950,11.154706 
z"/>
<path fill="#653A3D" opacity="1.000000" stroke="none" 
	d="
M8.000024,23.896666 
	C8.025117,24.458641 8.005490,24.727589 7.972107,25.400236 
	C7.570549,25.873020 7.182746,25.942101 6.502908,26.043701 
	C5.976836,25.599150 5.742800,25.122078 5.427756,24.402008 
	C5.915975,23.520674 6.485203,22.882336 7.370922,22.153284 
	C7.687413,22.062572 7.791437,22.190361 7.723082,22.338419 
	C7.638172,22.703663 7.712367,22.880154 7.877311,23.015951 
	C7.903308,23.211847 7.929306,23.407743 8.000024,23.896666 
z"/>
<path fill="#4F5C62" opacity="1.000000" stroke="none" 
	d="
M21.795368,16.890448 
	C22.823317,16.426151 23.851265,15.961856 25.046474,15.195218 
	C25.213739,14.892877 25.708708,14.960783 25.956604,14.992256 
	C26.196617,15.438376 26.188734,15.853024 25.834965,16.616074 
	C24.997049,16.985214 24.505024,17.005953 23.643171,17.011158 
	C22.780687,16.960567 22.288027,16.925507 21.795368,16.890448 
z"/>
<path fill="#8C888A" opacity="1.000000" stroke="none" 
	d="
M22.173264,11.436355 
	C22.168545,11.117983 22.343140,11.081259 22.769661,10.954578 
	C23.398783,11.074495 23.775978,11.284369 24.036556,11.800943 
	C23.397486,11.977763 22.875032,11.847883 22.173264,11.436355 
z"/>
<path fill="#190204" opacity="1.000000" stroke="none" 
	d="
M41.200905,35.352448 
	C40.837063,35.255768 40.739590,34.997742 40.685516,34.328224 
	C40.919418,33.883907 41.109917,33.851089 41.586910,33.773914 
	C41.901775,33.924965 41.930149,34.120377 41.989120,34.609615 
	C41.835575,34.999325 41.651424,35.095211 41.200905,35.352448 
z"/>
<path fill="#DC4442" opacity="1.000000" stroke="none" 
	d="
M6.801350,19.450901 
	C7.569317,19.546852 8.350675,19.965782 9.334137,20.701830 
	C8.896395,20.856770 8.256548,20.694593 7.286244,20.468616 
	C6.908772,20.194502 6.861756,19.984190 6.801350,19.450901 
z"/>
<path fill="#727176" opacity="1.000000" stroke="none" 
	d="
M19.945332,29.822475 
	C20.298349,29.324997 20.582134,28.883055 21.205305,27.998686 
	C21.803879,27.553015 22.063070,27.549772 22.322264,27.546528 
	C23.053255,27.783035 23.784248,28.019541 24.482216,28.866562 
	C22.957747,29.659887 21.466299,29.842701 19.974854,30.025517 
	C19.974854,30.025517 19.876101,29.878014 19.945332,29.822475 
z"/>
<path fill="#D66364" opacity="1.000000" stroke="none" 
	d="
M20.271038,30.218552 
	C21.466299,29.842701 22.957747,29.659887 24.658474,29.165878 
	C25.059454,28.886621 25.251150,28.918562 25.731216,28.992237 
	C26.019590,29.033974 25.986288,29.009615 25.992241,29.299181 
	C26.035419,30.000383 26.072643,30.412022 26.109867,30.823658 
	C25.633768,30.943420 25.157671,31.063181 24.330952,31.299732 
	C22.842627,31.081543 21.704926,30.746567 20.271038,30.218552 
z"/>
<path fill="#D61325" opacity="1.000000" stroke="none" 
	d="
M17.630329,21.290556 
	C16.628117,20.342022 15.888278,19.516075 15.418783,18.370476 
	C16.227648,18.122957 16.766169,18.195089 17.420704,18.483543 
	C17.979477,19.155771 18.422235,19.611679 18.864994,20.067587 
	C18.939447,20.536425 19.013899,21.005260 19.309296,21.753595 
	C18.984396,21.826441 18.438549,21.619791 17.630329,21.290556 
z"/>
<path fill="#C97777" opacity="1.000000" stroke="none" 
	d="
M19.033970,19.799873 
	C18.422235,19.611679 17.979477,19.155771 17.783392,18.410625 
	C19.035635,18.142496 20.041203,18.163607 21.027714,18.363697 
	C21.008656,18.542677 20.964582,18.899950 20.964582,18.899950 
	C20.377369,19.110685 19.790157,19.321423 19.033970,19.799873 
z"/>
<path fill="#E70F20" opacity="1.000000" stroke="none" 
	d="
M20.945589,26.577591 
	C20.945589,26.577591 20.769783,26.225159 20.688353,25.937061 
	C20.606922,25.648966 20.397646,25.398365 20.397646,25.398365 
	C20.397646,25.398365 20.090528,25.508442 20.090528,25.508442 
	C20.090528,25.508442 20.133699,25.466585 20.123083,25.438885 
	C20.125275,25.080574 20.138081,24.749966 20.060198,23.931450 
	C20.966030,24.596119 21.962553,25.748693 22.294407,26.943485 
	C21.401690,26.849663 21.173639,26.713627 20.945589,26.577591 
z"/>
<path fill="#DE8586" opacity="1.000000" stroke="none" 
	d="
M21.363131,18.936626 
	C20.964582,18.899950 21.008656,18.542677 21.397011,18.308033 
	C22.527218,17.986906 23.269070,17.900419 24.267704,17.891403 
	C24.692980,18.028744 24.861467,18.088617 25.012836,18.341848 
	C24.995716,18.535204 24.953779,18.921154 24.953779,18.921154 
	C23.889746,18.938538 22.825712,18.955921 21.363131,18.936626 
z"/>
<path fill="#F29696" opacity="1.000000" stroke="none" 
	d="
M25.277294,18.942448 
	C24.953779,18.921154 24.995716,18.535204 25.342827,18.288403 
	C26.130301,17.972481 26.570662,17.903358 27.011023,17.834238 
	C27.176624,17.888258 27.342224,17.942278 27.745785,18.104214 
	C27.189432,18.462666 26.395121,18.713203 25.277294,18.942448 
z"/>
<path fill="#ADC0C9" opacity="1.000000" stroke="none" 
	d="
M20.819893,26.903496 
	C21.173639,26.713627 21.401690,26.849663 21.995251,27.150030 
	C22.360765,27.314362 22.358521,27.433516 22.340393,27.490021 
	C22.063070,27.549772 21.803879,27.553015 21.198132,27.733154 
	C20.799114,27.683167 20.746655,27.456284 20.819893,26.903496 
z"/>
<path fill="#FAB4B3" opacity="1.000000" stroke="none" 
	d="
M26.485130,30.883173 
	C26.072643,30.412022 26.035419,30.000383 25.988583,29.278845 
	C26.340933,28.995436 26.702894,29.021931 27.332346,29.057171 
	C28.482756,29.375212 29.365675,29.684505 30.597702,30.036915 
	C29.584669,30.367584 28.222530,30.655136 26.485130,30.883173 
z"/>
<path fill="#70494E" opacity="1.000000" stroke="none" 
	d="
M27.013988,17.665270 
	C26.570662,17.903358 26.130301,17.972481 25.359947,18.095047 
	C24.861467,18.088617 24.692980,18.028744 24.267227,17.694672 
	C24.009966,17.420471 24.012997,17.026691 24.012997,17.026691 
	C24.505024,17.005953 24.997049,16.985214 25.857491,16.926540 
	C26.225904,16.888605 26.656569,16.943697 26.846132,17.051266 
	C27.035696,17.158836 27.016956,17.496302 27.013988,17.665270 
z"/>
<path fill="#6C7B82" opacity="1.000000" stroke="none" 
	d="
M15.720090,26.414240 
	C15.135043,26.096149 14.554178,25.327574 13.833521,24.250990 
	C14.119580,24.004801 14.545431,24.066622 15.178257,24.162518 
	C15.498245,24.785648 15.611259,25.374702 15.720090,26.414240 
z"/>
<path fill="#4F5C62" opacity="1.000000" stroke="none" 
	d="
M7.946799,23.010767 
	C7.712367,22.880154 7.638172,22.703663 7.727358,22.420696 
	C7.993268,22.513403 8.065368,22.730291 7.946799,23.010767 
z"/>
<path fill="#F6B4B4" opacity="1.000000" stroke="none" 
	d="
M20.019531,25.653244 
	C20.090528,25.508442 20.397646,25.398365 20.397646,25.398365 
	C20.397646,25.398365 20.606922,25.648966 20.545521,25.801495 
	C20.484121,25.954023 20.170176,26.034210 20.170176,26.034210 
	C20.170176,26.034210 19.948534,25.798046 20.019531,25.653244 
z"/>
<path fill="#655B61" opacity="1.000000" stroke="none" 
	d="
M23.643171,17.011158 
	C24.012997,17.026691 24.009966,17.420471 24.010443,17.617203 
	C23.269070,17.900419 22.527218,17.986906 21.416069,18.129055 
	C20.041203,18.163607 19.035635,18.142496 17.667377,18.194304 
	C16.766169,18.195089 16.227648,18.122957 15.284643,18.075191 
	C14.494402,18.062998 14.108644,18.026438 13.433512,17.981972 
	C13.095724,17.795488 13.047312,17.616915 13.260864,17.155556 
	C13.522830,16.872772 14.014846,16.802126 14.014846,16.802126 
	C16.324774,16.809540 18.634701,16.816954 21.369999,16.857407 
	C22.288027,16.925507 22.780687,16.960567 23.643171,17.011158 
z"/>
<path fill="#4F5C62" opacity="1.000000" stroke="none" 
	d="
M13.946278,16.613567 
	C14.014846,16.802126 13.522830,16.872772 13.273935,16.878332 
	C13.025042,16.883892 12.951352,16.390343 13.095022,16.187651 
	C13.533757,16.012657 13.746763,16.159342 13.946278,16.613567 
z"/>
</svg>